<svg width="20" height="30" viewBox="0 0 20 30" fill="none" xmlns="http://www.w3.org/2000/svg">
<path d="M17.6746 0H2.3254C1.04663 0 0 0.911143 0 2.02629V27.9729C0 29.088 1.04663 30 2.3254 30H17.6746C18.9534 30 20 29.0897 20 27.9737V2.02629C20 0.911143 18.9534 0 17.6746 0ZM7.54476 1.46057H12.4552C12.6107 1.46057 12.7366 1.57029 12.7366 1.70657C12.7366 1.842 12.6107 1.95171 12.4552 1.95171H7.54476C7.38934 1.95171 7.26343 1.842 7.26343 1.70657C7.26343 1.57029 7.38934 1.46057 7.54476 1.46057ZM10 28.9869C9.35766 28.9869 8.8373 28.5334 8.8373 27.9729C8.8373 27.4123 9.35766 26.9597 10 26.9597C10.6423 26.9597 11.1627 27.4123 11.1627 27.9729C11.1627 28.5334 10.6423 28.9869 10 28.9869ZM18.3819 26.25H1.61814V3.21343H18.3819V26.25Z" fill="white"/>
</svg>
